<svg width="96" height="96" viewBox="0 0 96 96" fill="none" xmlns="http://www.w3.org/2000/svg">
  <path
    d="M48 18C48 18 38 31 38 45C38 56 48 65 48 65C48 65 58 56 58 45C58 31 48 18 48 18Z"
    stroke="#2487EA"
    stroke-width="4"
    stroke-linecap="round"
    stroke-linejoin="round"
  />
  <path
    d="M37 34C27 35 18 43 14 55C28 58 40 54 48 65C48 65 47 46 37 34Z"
    stroke="#2487EA"
    stroke-width="4"
    stroke-linecap="round"
    stroke-linejoin="round"
  />
  <path
    d="M59 34C69 35 78 43 82 55C68 58 56 54 48 65C48 65 49 46 59 34Z"
    stroke="#2487EA"
    stroke-width="4"
    stroke-linecap="round"
    stroke-linejoin="round"
  />
  <path
    d="M31 49C23 51 17 58 14 68C27 70 39 68 48 65C43 57 38 52 31 49Z"
    stroke="#2487EA"
    stroke-width="4"
    stroke-linecap="round"
    stroke-linejoin="round"
  />
  <path
    d="M65 49C73 51 79 58 82 68C69 70 57 68 48 65C53 57 58 52 65 49Z"
    stroke="#2487EA"
    stroke-width="4"
    stroke-linecap="round"
    stroke-linejoin="round"
  />
  <path
    d="M24 72C31 76 39 78 48 78C57 78 65 76 72 72"
    stroke="#2487EA"
    stroke-width="4"
    stroke-linecap="round"
  />
</svg>